<svg
      width="29"
      height="24"
      viewBox="0 0 29 24"
      fill="none"
      xmlns="http://www.w3.org/2000/svg"
    >
      <path
        d="M6 21L22.8 21C23.4627 21 24 20.5523 24 20L24 10C24 9.44772 23.4627 9 22.8 9L6 9C5.33726 9 4.8 9.44772 4.8 10L4.8 20C4.8 20.5523 5.33726 21 6 21Z"
        stroke="#CECECE"
        stroke-width="2"
        stroke-linecap="round"
        stroke-linejoin="round"
      />
      <path
        d="M17.7231 9L17.7231 8L17.7231 9ZM11.0769 9L11.0769 10H11.0769L11.0769 9ZM10.8 8.76923H9.8H10.8ZM10.8 6H11.8H10.8ZM18 6H17V6L18 6ZM18 8.76923H19H18ZM14.4 3V4V3ZM17.7231 8L11.0769 8L11.0769 10L17.7231 10L17.7231 8ZM11.8 8.76923L11.8 6H9.8L9.8 8.76923H11.8ZM17 6L17 8.76923H19V6L17 6ZM14.4 4C16.0144 4 17 5.0584 17 6H19C19 3.62789 16.762 2 14.4 2V4ZM11.8 6C11.8 5.0584 12.7856 4 14.4 4V2C12.0379 2 9.8 3.62789 9.8 6H11.8ZM11.0769 8C11.2222 8 11.3825 8.04857 11.5213 8.16419C11.6622 8.28159 11.8 8.49117 11.8 8.76923H9.8C9.8 9.61193 10.5502 10 11.0769 10L11.0769 8ZM17.7231 10C18.2498 10 19 9.61194 19 8.76923H17C17 8.49116 17.1378 8.28159 17.2787 8.16419C17.4175 8.04856 17.5778 8 17.7231 8L17.7231 10Z"
        fill="#CECECE"
      />
    </svg>